<mxfile host="app.diagrams.net" modified="2021-04-20T13:47:24.936Z" agent="5.0 (Windows NT 10.0; Win64; x64) AppleWebKit/537.36 (KHTML, like Gecko) Chrome/89.0.4389.128 Safari/537.36" etag="ox6m63A2xEJ4fYgLCKy-" version="14.6.3" type="github">
  <diagram id="XYb5ReL2jlStGnLXNtQu" name="Page-1">
    <mxGraphModel dx="1422" dy="4301" grid="1" gridSize="10" guides="1" tooltips="1" connect="1" arrows="1" fold="1" page="1" pageScale="1" pageWidth="827" pageHeight="1169" math="0" shadow="0">
      <root>
        <mxCell id="0" />
        <mxCell id="1" parent="0" />
        <mxCell id="TZ4o8z1Lm96bOT44fwGX-1" style="edgeStyle=orthogonalEdgeStyle;rounded=0;orthogonalLoop=1;jettySize=auto;html=1;exitX=1;exitY=0.5;exitDx=0;exitDy=0;entryX=0;entryY=0.583;entryDx=0;entryDy=0;entryPerimeter=0;" edge="1" parent="1" source="TZ4o8z1Lm96bOT44fwGX-5" target="TZ4o8z1Lm96bOT44fwGX-6">
          <mxGeometry relative="1" as="geometry" />
        </mxCell>
        <mxCell id="TZ4o8z1Lm96bOT44fwGX-2" style="edgeStyle=orthogonalEdgeStyle;rounded=0;orthogonalLoop=1;jettySize=auto;html=1;exitX=0.5;exitY=1;exitDx=0;exitDy=0;" edge="1" parent="1" source="TZ4o8z1Lm96bOT44fwGX-5" target="TZ4o8z1Lm96bOT44fwGX-8">
          <mxGeometry relative="1" as="geometry" />
        </mxCell>
        <mxCell id="TZ4o8z1Lm96bOT44fwGX-3" style="edgeStyle=orthogonalEdgeStyle;rounded=0;orthogonalLoop=1;jettySize=auto;html=1;exitX=0.75;exitY=1;exitDx=0;exitDy=0;entryX=0;entryY=0.167;entryDx=0;entryDy=0;entryPerimeter=0;" edge="1" parent="1" source="TZ4o8z1Lm96bOT44fwGX-5" target="TZ4o8z1Lm96bOT44fwGX-7">
          <mxGeometry relative="1" as="geometry" />
        </mxCell>
        <mxCell id="TZ4o8z1Lm96bOT44fwGX-4" style="edgeStyle=orthogonalEdgeStyle;rounded=0;orthogonalLoop=1;jettySize=auto;html=1;exitX=0.5;exitY=0;exitDx=0;exitDy=0;" edge="1" parent="1" source="TZ4o8z1Lm96bOT44fwGX-5" target="TZ4o8z1Lm96bOT44fwGX-9">
          <mxGeometry relative="1" as="geometry" />
        </mxCell>
        <mxCell id="TZ4o8z1Lm96bOT44fwGX-5" value="Car" style="whiteSpace=wrap;html=1;aspect=fixed;fillColor=#dae8fc;strokeColor=#6c8ebf;" vertex="1" parent="1">
          <mxGeometry x="50" y="-2310" width="120" height="120" as="geometry" />
        </mxCell>
        <mxCell id="TZ4o8z1Lm96bOT44fwGX-6" value="Color" style="whiteSpace=wrap;html=1;aspect=fixed;fillColor=#ffe6cc;strokeColor=#d79b00;" vertex="1" parent="1">
          <mxGeometry x="190" y="-2320" width="120" height="120" as="geometry" />
        </mxCell>
        <mxCell id="TZ4o8z1Lm96bOT44fwGX-7" value="Brand" style="whiteSpace=wrap;html=1;aspect=fixed;fillColor=#ffe6cc;strokeColor=#d79b00;" vertex="1" parent="1">
          <mxGeometry x="220" y="-2150" width="120" height="120" as="geometry" />
        </mxCell>
        <mxCell id="TZ4o8z1Lm96bOT44fwGX-8" value="Price" style="whiteSpace=wrap;html=1;aspect=fixed;fillColor=#ffe6cc;strokeColor=#d79b00;" vertex="1" parent="1">
          <mxGeometry x="40" y="-2120" width="120" height="120" as="geometry" />
        </mxCell>
        <mxCell id="TZ4o8z1Lm96bOT44fwGX-9" value="Drive" style="whiteSpace=wrap;html=1;aspect=fixed;fillColor=#f8cecc;strokeColor=#b85450;" vertex="1" parent="1">
          <mxGeometry x="60" y="-2470" width="120" height="120" as="geometry" />
        </mxCell>
        <mxCell id="TZ4o8z1Lm96bOT44fwGX-10" style="edgeStyle=orthogonalEdgeStyle;rounded=0;orthogonalLoop=1;jettySize=auto;html=1;exitX=0;exitY=0.5;exitDx=0;exitDy=0;entryX=1;entryY=0.5;entryDx=0;entryDy=0;" edge="1" parent="1" source="TZ4o8z1Lm96bOT44fwGX-13" target="TZ4o8z1Lm96bOT44fwGX-16">
          <mxGeometry relative="1" as="geometry" />
        </mxCell>
        <mxCell id="TZ4o8z1Lm96bOT44fwGX-11" style="edgeStyle=orthogonalEdgeStyle;rounded=0;orthogonalLoop=1;jettySize=auto;html=1;exitX=1;exitY=0.25;exitDx=0;exitDy=0;entryX=0;entryY=0.5;entryDx=0;entryDy=0;" edge="1" parent="1" source="TZ4o8z1Lm96bOT44fwGX-13" target="TZ4o8z1Lm96bOT44fwGX-17">
          <mxGeometry relative="1" as="geometry" />
        </mxCell>
        <mxCell id="TZ4o8z1Lm96bOT44fwGX-12" style="edgeStyle=orthogonalEdgeStyle;rounded=0;orthogonalLoop=1;jettySize=auto;html=1;exitX=1;exitY=0.75;exitDx=0;exitDy=0;" edge="1" parent="1" source="TZ4o8z1Lm96bOT44fwGX-13" target="TZ4o8z1Lm96bOT44fwGX-18">
          <mxGeometry relative="1" as="geometry" />
        </mxCell>
        <mxCell id="TZ4o8z1Lm96bOT44fwGX-13" value="Backend&lt;br&gt;Python" style="whiteSpace=wrap;html=1;aspect=fixed;fillColor=#dae8fc;strokeColor=#6c8ebf;" vertex="1" parent="1">
          <mxGeometry x="340" y="-1910" width="120" height="120" as="geometry" />
        </mxCell>
        <mxCell id="TZ4o8z1Lm96bOT44fwGX-14" value="Database&lt;br&gt;Postgres" style="whiteSpace=wrap;html=1;aspect=fixed;fillColor=#dae8fc;strokeColor=#6c8ebf;" vertex="1" parent="1">
          <mxGeometry x="60" y="-1910" width="110" height="110" as="geometry" />
        </mxCell>
        <mxCell id="TZ4o8z1Lm96bOT44fwGX-15" style="edgeStyle=orthogonalEdgeStyle;rounded=0;orthogonalLoop=1;jettySize=auto;html=1;exitX=0;exitY=0.5;exitDx=0;exitDy=0;entryX=1;entryY=0.5;entryDx=0;entryDy=0;" edge="1" parent="1" source="TZ4o8z1Lm96bOT44fwGX-16" target="TZ4o8z1Lm96bOT44fwGX-14">
          <mxGeometry relative="1" as="geometry" />
        </mxCell>
        <mxCell id="TZ4o8z1Lm96bOT44fwGX-16" value="ORM&lt;br&gt;SQLAlchemy" style="whiteSpace=wrap;html=1;aspect=fixed;fillColor=#dae8fc;strokeColor=#6c8ebf;" vertex="1" parent="1">
          <mxGeometry x="200" y="-1900" width="100" height="100" as="geometry" />
        </mxCell>
        <mxCell id="TZ4o8z1Lm96bOT44fwGX-17" value="add" style="whiteSpace=wrap;html=1;aspect=fixed;fillColor=#dae8fc;strokeColor=#6c8ebf;" vertex="1" parent="1">
          <mxGeometry x="500" y="-1970" width="120" height="120" as="geometry" />
        </mxCell>
        <mxCell id="TZ4o8z1Lm96bOT44fwGX-18" value="get" style="whiteSpace=wrap;html=1;aspect=fixed;fillColor=#dae8fc;strokeColor=#6c8ebf;" vertex="1" parent="1">
          <mxGeometry x="500" y="-1820" width="120" height="120" as="geometry" />
        </mxCell>
        <mxCell id="TZ4o8z1Lm96bOT44fwGX-19" style="edgeStyle=orthogonalEdgeStyle;rounded=0;orthogonalLoop=1;jettySize=auto;html=1;exitX=0.25;exitY=1;exitDx=0;exitDy=0;entryX=0.5;entryY=0;entryDx=0;entryDy=0;" edge="1" parent="1" source="TZ4o8z1Lm96bOT44fwGX-20" target="TZ4o8z1Lm96bOT44fwGX-22">
          <mxGeometry relative="1" as="geometry" />
        </mxCell>
        <mxCell id="TZ4o8z1Lm96bOT44fwGX-20" value="Python" style="whiteSpace=wrap;html=1;aspect=fixed;" vertex="1" parent="1">
          <mxGeometry x="615" y="-2690" width="80" height="80" as="geometry" />
        </mxCell>
        <mxCell id="TZ4o8z1Lm96bOT44fwGX-21" style="edgeStyle=orthogonalEdgeStyle;rounded=0;orthogonalLoop=1;jettySize=auto;html=1;exitX=1;exitY=0.5;exitDx=0;exitDy=0;entryX=0;entryY=0.5;entryDx=0;entryDy=0;" edge="1" parent="1" source="TZ4o8z1Lm96bOT44fwGX-22" target="TZ4o8z1Lm96bOT44fwGX-25">
          <mxGeometry relative="1" as="geometry" />
        </mxCell>
        <mxCell id="TZ4o8z1Lm96bOT44fwGX-22" value="Framework&lt;br&gt;Flask" style="whiteSpace=wrap;html=1;aspect=fixed;" vertex="1" parent="1">
          <mxGeometry x="560" y="-2560" width="80" height="80" as="geometry" />
        </mxCell>
        <mxCell id="TZ4o8z1Lm96bOT44fwGX-23" style="edgeStyle=orthogonalEdgeStyle;rounded=0;orthogonalLoop=1;jettySize=auto;html=1;exitX=0.25;exitY=1;exitDx=0;exitDy=0;" edge="1" parent="1" source="TZ4o8z1Lm96bOT44fwGX-25" target="TZ4o8z1Lm96bOT44fwGX-27">
          <mxGeometry relative="1" as="geometry">
            <Array as="points">
              <mxPoint x="730" y="-2430" />
              <mxPoint x="730" y="-2430" />
            </Array>
          </mxGeometry>
        </mxCell>
        <mxCell id="TZ4o8z1Lm96bOT44fwGX-24" style="edgeStyle=orthogonalEdgeStyle;rounded=0;orthogonalLoop=1;jettySize=auto;html=1;exitX=1;exitY=0.5;exitDx=0;exitDy=0;entryX=0;entryY=0.5;entryDx=0;entryDy=0;" edge="1" parent="1" source="TZ4o8z1Lm96bOT44fwGX-25" target="TZ4o8z1Lm96bOT44fwGX-33">
          <mxGeometry relative="1" as="geometry" />
        </mxCell>
        <mxCell id="TZ4o8z1Lm96bOT44fwGX-25" value="Backend service" style="whiteSpace=wrap;html=1;aspect=fixed;" vertex="1" parent="1">
          <mxGeometry x="710" y="-2560" width="80" height="80" as="geometry" />
        </mxCell>
        <mxCell id="TZ4o8z1Lm96bOT44fwGX-26" style="edgeStyle=orthogonalEdgeStyle;rounded=0;orthogonalLoop=1;jettySize=auto;html=1;exitX=0.75;exitY=0;exitDx=0;exitDy=0;entryX=0.75;entryY=1;entryDx=0;entryDy=0;" edge="1" parent="1" source="TZ4o8z1Lm96bOT44fwGX-27" target="TZ4o8z1Lm96bOT44fwGX-25">
          <mxGeometry relative="1" as="geometry" />
        </mxCell>
        <mxCell id="TZ4o8z1Lm96bOT44fwGX-27" value="Database" style="whiteSpace=wrap;html=1;aspect=fixed;" vertex="1" parent="1">
          <mxGeometry x="710" y="-2410" width="80" height="80" as="geometry" />
        </mxCell>
        <mxCell id="TZ4o8z1Lm96bOT44fwGX-28" style="edgeStyle=orthogonalEdgeStyle;rounded=0;orthogonalLoop=1;jettySize=auto;html=1;exitX=1;exitY=0.25;exitDx=0;exitDy=0;entryX=0;entryY=0.5;entryDx=0;entryDy=0;" edge="1" parent="1" source="TZ4o8z1Lm96bOT44fwGX-33" target="TZ4o8z1Lm96bOT44fwGX-37">
          <mxGeometry relative="1" as="geometry" />
        </mxCell>
        <mxCell id="TZ4o8z1Lm96bOT44fwGX-29" style="edgeStyle=orthogonalEdgeStyle;rounded=0;orthogonalLoop=1;jettySize=auto;html=1;exitX=1;exitY=0.5;exitDx=0;exitDy=0;entryX=0;entryY=0.5;entryDx=0;entryDy=0;" edge="1" parent="1" source="TZ4o8z1Lm96bOT44fwGX-33" target="TZ4o8z1Lm96bOT44fwGX-38">
          <mxGeometry relative="1" as="geometry" />
        </mxCell>
        <mxCell id="TZ4o8z1Lm96bOT44fwGX-30" style="edgeStyle=orthogonalEdgeStyle;rounded=0;orthogonalLoop=1;jettySize=auto;html=1;exitX=0.75;exitY=0;exitDx=0;exitDy=0;entryX=0;entryY=0.5;entryDx=0;entryDy=0;" edge="1" parent="1" source="TZ4o8z1Lm96bOT44fwGX-33" target="TZ4o8z1Lm96bOT44fwGX-35">
          <mxGeometry relative="1" as="geometry" />
        </mxCell>
        <mxCell id="TZ4o8z1Lm96bOT44fwGX-31" style="edgeStyle=orthogonalEdgeStyle;rounded=0;orthogonalLoop=1;jettySize=auto;html=1;exitX=0.75;exitY=1;exitDx=0;exitDy=0;entryX=0;entryY=0.5;entryDx=0;entryDy=0;" edge="1" parent="1" source="TZ4o8z1Lm96bOT44fwGX-33" target="TZ4o8z1Lm96bOT44fwGX-39">
          <mxGeometry relative="1" as="geometry" />
        </mxCell>
        <mxCell id="TZ4o8z1Lm96bOT44fwGX-32" style="edgeStyle=orthogonalEdgeStyle;rounded=0;orthogonalLoop=1;jettySize=auto;html=1;exitX=0.5;exitY=1;exitDx=0;exitDy=0;entryX=0;entryY=0.5;entryDx=0;entryDy=0;" edge="1" parent="1" source="TZ4o8z1Lm96bOT44fwGX-33" target="TZ4o8z1Lm96bOT44fwGX-40">
          <mxGeometry relative="1" as="geometry" />
        </mxCell>
        <mxCell id="TZ4o8z1Lm96bOT44fwGX-33" value="API" style="whiteSpace=wrap;html=1;aspect=fixed;" vertex="1" parent="1">
          <mxGeometry x="830" y="-2560" width="80" height="80" as="geometry" />
        </mxCell>
        <mxCell id="TZ4o8z1Lm96bOT44fwGX-34" style="edgeStyle=orthogonalEdgeStyle;rounded=0;orthogonalLoop=1;jettySize=auto;html=1;exitX=1;exitY=0.5;exitDx=0;exitDy=0;entryX=0;entryY=0.25;entryDx=0;entryDy=0;" edge="1" parent="1" source="TZ4o8z1Lm96bOT44fwGX-35" target="TZ4o8z1Lm96bOT44fwGX-61">
          <mxGeometry relative="1" as="geometry" />
        </mxCell>
        <mxCell id="TZ4o8z1Lm96bOT44fwGX-35" value="GET" style="whiteSpace=wrap;html=1;aspect=fixed;fillColor=#d5e8d4;strokeColor=#82b366;" vertex="1" parent="1">
          <mxGeometry x="940" y="-2710" width="80" height="80" as="geometry" />
        </mxCell>
        <mxCell id="TZ4o8z1Lm96bOT44fwGX-36" style="edgeStyle=orthogonalEdgeStyle;rounded=0;orthogonalLoop=1;jettySize=auto;html=1;exitX=1;exitY=0.5;exitDx=0;exitDy=0;" edge="1" parent="1" source="TZ4o8z1Lm96bOT44fwGX-37" target="TZ4o8z1Lm96bOT44fwGX-59">
          <mxGeometry relative="1" as="geometry">
            <Array as="points">
              <mxPoint x="1050" y="-2580" />
            </Array>
          </mxGeometry>
        </mxCell>
        <mxCell id="TZ4o8z1Lm96bOT44fwGX-37" value="POST" style="whiteSpace=wrap;html=1;aspect=fixed;fillColor=#d5e8d4;strokeColor=#82b366;" vertex="1" parent="1">
          <mxGeometry x="940" y="-2620" width="80" height="80" as="geometry" />
        </mxCell>
        <mxCell id="TZ4o8z1Lm96bOT44fwGX-38" value="PATCH" style="whiteSpace=wrap;html=1;aspect=fixed;fillColor=#d5e8d4;strokeColor=#82b366;" vertex="1" parent="1">
          <mxGeometry x="940" y="-2520" width="80" height="80" as="geometry" />
        </mxCell>
        <mxCell id="TZ4o8z1Lm96bOT44fwGX-39" value="DELETE" style="whiteSpace=wrap;html=1;aspect=fixed;fillColor=#d5e8d4;strokeColor=#82b366;" vertex="1" parent="1">
          <mxGeometry x="940" y="-2430" width="80" height="80" as="geometry" />
        </mxCell>
        <mxCell id="TZ4o8z1Lm96bOT44fwGX-40" value="PUT" style="whiteSpace=wrap;html=1;aspect=fixed;fillColor=#d5e8d4;strokeColor=#82b366;" vertex="1" parent="1">
          <mxGeometry x="940" y="-2340" width="80" height="80" as="geometry" />
        </mxCell>
        <mxCell id="TZ4o8z1Lm96bOT44fwGX-41" style="edgeStyle=orthogonalEdgeStyle;rounded=0;orthogonalLoop=1;jettySize=auto;html=1;exitX=0.75;exitY=0;exitDx=0;exitDy=0;entryX=0;entryY=0.25;entryDx=0;entryDy=0;" edge="1" parent="1" source="TZ4o8z1Lm96bOT44fwGX-47" target="TZ4o8z1Lm96bOT44fwGX-48">
          <mxGeometry relative="1" as="geometry" />
        </mxCell>
        <mxCell id="TZ4o8z1Lm96bOT44fwGX-42" style="edgeStyle=orthogonalEdgeStyle;rounded=0;orthogonalLoop=1;jettySize=auto;html=1;exitX=1;exitY=0.5;exitDx=0;exitDy=0;entryX=0;entryY=0.5;entryDx=0;entryDy=0;" edge="1" parent="1" source="TZ4o8z1Lm96bOT44fwGX-47" target="TZ4o8z1Lm96bOT44fwGX-49">
          <mxGeometry relative="1" as="geometry" />
        </mxCell>
        <mxCell id="TZ4o8z1Lm96bOT44fwGX-43" style="edgeStyle=orthogonalEdgeStyle;rounded=0;orthogonalLoop=1;jettySize=auto;html=1;exitX=1;exitY=0.75;exitDx=0;exitDy=0;" edge="1" parent="1" source="TZ4o8z1Lm96bOT44fwGX-47" target="TZ4o8z1Lm96bOT44fwGX-50">
          <mxGeometry relative="1" as="geometry" />
        </mxCell>
        <mxCell id="TZ4o8z1Lm96bOT44fwGX-44" style="edgeStyle=orthogonalEdgeStyle;rounded=0;orthogonalLoop=1;jettySize=auto;html=1;exitX=0.75;exitY=1;exitDx=0;exitDy=0;entryX=0;entryY=0.5;entryDx=0;entryDy=0;" edge="1" parent="1" source="TZ4o8z1Lm96bOT44fwGX-47" target="TZ4o8z1Lm96bOT44fwGX-51">
          <mxGeometry relative="1" as="geometry" />
        </mxCell>
        <mxCell id="TZ4o8z1Lm96bOT44fwGX-45" style="edgeStyle=orthogonalEdgeStyle;rounded=0;orthogonalLoop=1;jettySize=auto;html=1;exitX=0.25;exitY=0;exitDx=0;exitDy=0;" edge="1" parent="1" source="TZ4o8z1Lm96bOT44fwGX-47" target="TZ4o8z1Lm96bOT44fwGX-53">
          <mxGeometry relative="1" as="geometry">
            <mxPoint x="1110" y="-2700" as="targetPoint" />
          </mxGeometry>
        </mxCell>
        <mxCell id="TZ4o8z1Lm96bOT44fwGX-46" style="edgeStyle=orthogonalEdgeStyle;rounded=0;orthogonalLoop=1;jettySize=auto;html=1;exitX=0.5;exitY=0;exitDx=0;exitDy=0;entryX=1;entryY=0.5;entryDx=0;entryDy=0;" edge="1" parent="1" source="TZ4o8z1Lm96bOT44fwGX-47" target="TZ4o8z1Lm96bOT44fwGX-55">
          <mxGeometry relative="1" as="geometry" />
        </mxCell>
        <mxCell id="TZ4o8z1Lm96bOT44fwGX-47" value="CLIENT" style="whiteSpace=wrap;html=1;aspect=fixed;" vertex="1" parent="1">
          <mxGeometry x="1130" y="-2590" width="80" height="80" as="geometry" />
        </mxCell>
        <mxCell id="TZ4o8z1Lm96bOT44fwGX-48" value="Web browser" style="whiteSpace=wrap;html=1;aspect=fixed;" vertex="1" parent="1">
          <mxGeometry x="1250" y="-2690" width="80" height="80" as="geometry" />
        </mxCell>
        <mxCell id="TZ4o8z1Lm96bOT44fwGX-49" value="Mobile app" style="whiteSpace=wrap;html=1;aspect=fixed;" vertex="1" parent="1">
          <mxGeometry x="1250" y="-2590" width="80" height="80" as="geometry" />
        </mxCell>
        <mxCell id="TZ4o8z1Lm96bOT44fwGX-50" value="Backend service" style="whiteSpace=wrap;html=1;aspect=fixed;" vertex="1" parent="1">
          <mxGeometry x="1250" y="-2490" width="80" height="80" as="geometry" />
        </mxCell>
        <mxCell id="TZ4o8z1Lm96bOT44fwGX-51" value="Desktop" style="whiteSpace=wrap;html=1;aspect=fixed;" vertex="1" parent="1">
          <mxGeometry x="1250" y="-2400" width="80" height="80" as="geometry" />
        </mxCell>
        <mxCell id="TZ4o8z1Lm96bOT44fwGX-52" style="edgeStyle=orthogonalEdgeStyle;rounded=0;orthogonalLoop=1;jettySize=auto;html=1;exitX=0;exitY=0.25;exitDx=0;exitDy=0;" edge="1" parent="1" source="TZ4o8z1Lm96bOT44fwGX-53" target="TZ4o8z1Lm96bOT44fwGX-57">
          <mxGeometry relative="1" as="geometry" />
        </mxCell>
        <mxCell id="TZ4o8z1Lm96bOT44fwGX-53" value="/getCar" style="whiteSpace=wrap;html=1;aspect=fixed;" vertex="1" parent="1">
          <mxGeometry x="1060" y="-2790" width="80" height="80" as="geometry" />
        </mxCell>
        <mxCell id="TZ4o8z1Lm96bOT44fwGX-54" style="edgeStyle=orthogonalEdgeStyle;rounded=0;orthogonalLoop=1;jettySize=auto;html=1;exitX=0;exitY=0.5;exitDx=0;exitDy=0;entryX=1.015;entryY=0.175;entryDx=0;entryDy=0;entryPerimeter=0;" edge="1" parent="1" source="TZ4o8z1Lm96bOT44fwGX-55" target="TZ4o8z1Lm96bOT44fwGX-57">
          <mxGeometry relative="1" as="geometry" />
        </mxCell>
        <mxCell id="TZ4o8z1Lm96bOT44fwGX-55" value="/createCar" style="whiteSpace=wrap;html=1;aspect=fixed;" vertex="1" parent="1">
          <mxGeometry x="1040" y="-2890" width="80" height="80" as="geometry" />
        </mxCell>
        <mxCell id="TZ4o8z1Lm96bOT44fwGX-56" style="edgeStyle=orthogonalEdgeStyle;rounded=0;orthogonalLoop=1;jettySize=auto;html=1;exitX=0.5;exitY=1;exitDx=0;exitDy=0;" edge="1" parent="1" source="TZ4o8z1Lm96bOT44fwGX-57" target="TZ4o8z1Lm96bOT44fwGX-33">
          <mxGeometry relative="1" as="geometry" />
        </mxCell>
        <mxCell id="TZ4o8z1Lm96bOT44fwGX-57" value="Routes" style="whiteSpace=wrap;html=1;aspect=fixed;" vertex="1" parent="1">
          <mxGeometry x="820" y="-2810" width="80" height="80" as="geometry" />
        </mxCell>
        <mxCell id="TZ4o8z1Lm96bOT44fwGX-58" style="edgeStyle=orthogonalEdgeStyle;rounded=0;orthogonalLoop=1;jettySize=auto;html=1;exitX=0.5;exitY=1;exitDx=0;exitDy=0;entryX=0;entryY=0.5;entryDx=0;entryDy=0;" edge="1" parent="1" source="TZ4o8z1Lm96bOT44fwGX-59" target="TZ4o8z1Lm96bOT44fwGX-85">
          <mxGeometry relative="1" as="geometry" />
        </mxCell>
        <mxCell id="TZ4o8z1Lm96bOT44fwGX-59" value="def createCar" style="whiteSpace=wrap;html=1;aspect=fixed;" vertex="1" parent="1">
          <mxGeometry x="1020" y="-2230" width="90" height="90" as="geometry" />
        </mxCell>
        <mxCell id="TZ4o8z1Lm96bOT44fwGX-60" style="edgeStyle=orthogonalEdgeStyle;rounded=0;orthogonalLoop=1;jettySize=auto;html=1;exitX=0.5;exitY=1;exitDx=0;exitDy=0;" edge="1" parent="1" source="TZ4o8z1Lm96bOT44fwGX-61">
          <mxGeometry relative="1" as="geometry">
            <mxPoint x="1070" y="-2110" as="targetPoint" />
            <Array as="points">
              <mxPoint x="1165" y="-2120" />
              <mxPoint x="1070" y="-2120" />
            </Array>
          </mxGeometry>
        </mxCell>
        <mxCell id="TZ4o8z1Lm96bOT44fwGX-61" value="def getCar" style="whiteSpace=wrap;html=1;aspect=fixed;" vertex="1" parent="1">
          <mxGeometry x="1120" y="-2330" width="90" height="90" as="geometry" />
        </mxCell>
        <mxCell id="TZ4o8z1Lm96bOT44fwGX-62" value="No relation database" style="whiteSpace=wrap;html=1;aspect=fixed;" vertex="1" parent="1">
          <mxGeometry x="1245" y="-2270" width="90" height="90" as="geometry" />
        </mxCell>
        <mxCell id="TZ4o8z1Lm96bOT44fwGX-63" style="edgeStyle=orthogonalEdgeStyle;rounded=0;orthogonalLoop=1;jettySize=auto;html=1;exitX=0.5;exitY=1;exitDx=0;exitDy=0;" edge="1" parent="1" source="TZ4o8z1Lm96bOT44fwGX-64" target="TZ4o8z1Lm96bOT44fwGX-67">
          <mxGeometry relative="1" as="geometry" />
        </mxCell>
        <mxCell id="TZ4o8z1Lm96bOT44fwGX-64" value="Information" style="whiteSpace=wrap;html=1;aspect=fixed;" vertex="1" parent="1">
          <mxGeometry x="1390" y="-2510" width="90" height="90" as="geometry" />
        </mxCell>
        <mxCell id="TZ4o8z1Lm96bOT44fwGX-65" style="edgeStyle=orthogonalEdgeStyle;rounded=0;orthogonalLoop=1;jettySize=auto;html=1;exitX=0;exitY=0.75;exitDx=0;exitDy=0;" edge="1" parent="1" source="TZ4o8z1Lm96bOT44fwGX-67" target="TZ4o8z1Lm96bOT44fwGX-62">
          <mxGeometry relative="1" as="geometry" />
        </mxCell>
        <mxCell id="TZ4o8z1Lm96bOT44fwGX-66" style="edgeStyle=orthogonalEdgeStyle;rounded=0;orthogonalLoop=1;jettySize=auto;html=1;exitX=1;exitY=0.5;exitDx=0;exitDy=0;" edge="1" parent="1" source="TZ4o8z1Lm96bOT44fwGX-67" target="TZ4o8z1Lm96bOT44fwGX-69">
          <mxGeometry relative="1" as="geometry" />
        </mxCell>
        <mxCell id="TZ4o8z1Lm96bOT44fwGX-67" value="Knowledge" style="whiteSpace=wrap;html=1;aspect=fixed;" vertex="1" parent="1">
          <mxGeometry x="1390" y="-2360" width="90" height="90" as="geometry" />
        </mxCell>
        <mxCell id="TZ4o8z1Lm96bOT44fwGX-68" style="edgeStyle=orthogonalEdgeStyle;rounded=0;orthogonalLoop=1;jettySize=auto;html=1;exitX=0.5;exitY=1;exitDx=0;exitDy=0;" edge="1" parent="1" source="TZ4o8z1Lm96bOT44fwGX-69" target="TZ4o8z1Lm96bOT44fwGX-70">
          <mxGeometry relative="1" as="geometry" />
        </mxCell>
        <mxCell id="TZ4o8z1Lm96bOT44fwGX-69" value="Relation databases" style="whiteSpace=wrap;html=1;aspect=fixed;" vertex="1" parent="1">
          <mxGeometry x="1460" y="-2230" width="90" height="90" as="geometry" />
        </mxCell>
        <mxCell id="TZ4o8z1Lm96bOT44fwGX-70" value="Cars" style="swimlane;fontStyle=1;align=center;verticalAlign=top;childLayout=stackLayout;horizontal=1;startSize=26;horizontalStack=0;resizeParent=1;resizeParentMax=0;resizeLast=0;collapsible=1;marginBottom=0;" vertex="1" parent="1">
          <mxGeometry x="1425" y="-2090" width="160" height="138" as="geometry" />
        </mxCell>
        <mxCell id="TZ4o8z1Lm96bOT44fwGX-71" value="color: string" style="text;strokeColor=none;fillColor=none;align=left;verticalAlign=top;spacingLeft=4;spacingRight=4;overflow=hidden;rotatable=0;points=[[0,0.5],[1,0.5]];portConstraint=eastwest;" vertex="1" parent="TZ4o8z1Lm96bOT44fwGX-70">
          <mxGeometry y="26" width="160" height="26" as="geometry" />
        </mxCell>
        <mxCell id="TZ4o8z1Lm96bOT44fwGX-72" value="" style="line;strokeWidth=1;fillColor=none;align=left;verticalAlign=middle;spacingTop=-1;spacingLeft=3;spacingRight=3;rotatable=0;labelPosition=right;points=[];portConstraint=eastwest;" vertex="1" parent="TZ4o8z1Lm96bOT44fwGX-70">
          <mxGeometry y="52" width="160" height="8" as="geometry" />
        </mxCell>
        <mxCell id="TZ4o8z1Lm96bOT44fwGX-73" value="price: number" style="text;strokeColor=none;fillColor=none;align=left;verticalAlign=top;spacingLeft=4;spacingRight=4;overflow=hidden;rotatable=0;points=[[0,0.5],[1,0.5]];portConstraint=eastwest;" vertex="1" parent="TZ4o8z1Lm96bOT44fwGX-70">
          <mxGeometry y="60" width="160" height="26" as="geometry" />
        </mxCell>
        <mxCell id="TZ4o8z1Lm96bOT44fwGX-74" value="brand: string " style="text;strokeColor=none;fillColor=none;align=left;verticalAlign=top;spacingLeft=4;spacingRight=4;overflow=hidden;rotatable=0;points=[[0,0.5],[1,0.5]];portConstraint=eastwest;" vertex="1" parent="TZ4o8z1Lm96bOT44fwGX-70">
          <mxGeometry y="86" width="160" height="26" as="geometry" />
        </mxCell>
        <mxCell id="TZ4o8z1Lm96bOT44fwGX-75" value="id: number PK" style="text;strokeColor=none;fillColor=none;align=left;verticalAlign=top;spacingLeft=4;spacingRight=4;overflow=hidden;rotatable=0;points=[[0,0.5],[1,0.5]];portConstraint=eastwest;" vertex="1" parent="TZ4o8z1Lm96bOT44fwGX-70">
          <mxGeometry y="112" width="160" height="26" as="geometry" />
        </mxCell>
        <mxCell id="TZ4o8z1Lm96bOT44fwGX-76" style="edgeStyle=orthogonalEdgeStyle;rounded=0;orthogonalLoop=1;jettySize=auto;html=1;exitX=1;exitY=0.5;exitDx=0;exitDy=0;entryX=0;entryY=0.5;entryDx=0;entryDy=0;" edge="1" parent="1" source="TZ4o8z1Lm96bOT44fwGX-77" target="TZ4o8z1Lm96bOT44fwGX-69">
          <mxGeometry relative="1" as="geometry" />
        </mxCell>
        <mxCell id="TZ4o8z1Lm96bOT44fwGX-77" value="СУБД" style="whiteSpace=wrap;html=1;aspect=fixed;" vertex="1" parent="1">
          <mxGeometry x="1220" y="-2110" width="90" height="90" as="geometry" />
        </mxCell>
        <mxCell id="TZ4o8z1Lm96bOT44fwGX-78" style="edgeStyle=orthogonalEdgeStyle;rounded=0;orthogonalLoop=1;jettySize=auto;html=1;exitX=1;exitY=0.5;exitDx=0;exitDy=0;" edge="1" parent="1" source="TZ4o8z1Lm96bOT44fwGX-79" target="TZ4o8z1Lm96bOT44fwGX-77">
          <mxGeometry relative="1" as="geometry" />
        </mxCell>
        <mxCell id="TZ4o8z1Lm96bOT44fwGX-79" value="Приложений" style="whiteSpace=wrap;html=1;aspect=fixed;" vertex="1" parent="1">
          <mxGeometry x="1090" y="-2100" width="90" height="90" as="geometry" />
        </mxCell>
        <mxCell id="TZ4o8z1Lm96bOT44fwGX-80" style="edgeStyle=orthogonalEdgeStyle;rounded=0;orthogonalLoop=1;jettySize=auto;html=1;exitX=0.5;exitY=0;exitDx=0;exitDy=0;entryX=0.5;entryY=1;entryDx=0;entryDy=0;" edge="1" parent="1" source="TZ4o8z1Lm96bOT44fwGX-81" target="TZ4o8z1Lm96bOT44fwGX-77">
          <mxGeometry relative="1" as="geometry" />
        </mxCell>
        <mxCell id="TZ4o8z1Lm96bOT44fwGX-81" value="SQL requests" style="whiteSpace=wrap;html=1;aspect=fixed;" vertex="1" parent="1">
          <mxGeometry x="1310" y="-1970" width="90" height="90" as="geometry" />
        </mxCell>
        <mxCell id="TZ4o8z1Lm96bOT44fwGX-82" style="edgeStyle=orthogonalEdgeStyle;rounded=0;orthogonalLoop=1;jettySize=auto;html=1;exitX=1;exitY=0.5;exitDx=0;exitDy=0;" edge="1" parent="1" source="TZ4o8z1Lm96bOT44fwGX-85" target="TZ4o8z1Lm96bOT44fwGX-81">
          <mxGeometry relative="1" as="geometry" />
        </mxCell>
        <mxCell id="TZ4o8z1Lm96bOT44fwGX-83" style="edgeStyle=orthogonalEdgeStyle;rounded=0;orthogonalLoop=1;jettySize=auto;html=1;exitX=0.5;exitY=1;exitDx=0;exitDy=0;entryX=0.5;entryY=0;entryDx=0;entryDy=0;" edge="1" parent="1" source="TZ4o8z1Lm96bOT44fwGX-85" target="TZ4o8z1Lm96bOT44fwGX-88">
          <mxGeometry relative="1" as="geometry" />
        </mxCell>
        <mxCell id="TZ4o8z1Lm96bOT44fwGX-84" style="edgeStyle=orthogonalEdgeStyle;rounded=0;orthogonalLoop=1;jettySize=auto;html=1;exitX=0.25;exitY=1;exitDx=0;exitDy=0;" edge="1" parent="1" source="TZ4o8z1Lm96bOT44fwGX-85" target="TZ4o8z1Lm96bOT44fwGX-89">
          <mxGeometry relative="1" as="geometry" />
        </mxCell>
        <mxCell id="TZ4o8z1Lm96bOT44fwGX-85" value="ORM" style="whiteSpace=wrap;html=1;aspect=fixed;" vertex="1" parent="1">
          <mxGeometry x="1090" y="-1952" width="90" height="90" as="geometry" />
        </mxCell>
        <mxCell id="TZ4o8z1Lm96bOT44fwGX-86" value="SQLAlchemy" style="whiteSpace=wrap;html=1;aspect=fixed;" vertex="1" parent="1">
          <mxGeometry x="1000" y="-1952" width="90" height="90" as="geometry" />
        </mxCell>
        <mxCell id="TZ4o8z1Lm96bOT44fwGX-87" style="edgeStyle=orthogonalEdgeStyle;rounded=0;orthogonalLoop=1;jettySize=auto;html=1;exitX=1;exitY=0.5;exitDx=0;exitDy=0;entryX=0.581;entryY=0.966;entryDx=0;entryDy=0;entryPerimeter=0;" edge="1" parent="1" source="TZ4o8z1Lm96bOT44fwGX-88" target="TZ4o8z1Lm96bOT44fwGX-75">
          <mxGeometry relative="1" as="geometry" />
        </mxCell>
        <mxCell id="TZ4o8z1Lm96bOT44fwGX-88" value="Code First" style="whiteSpace=wrap;html=1;aspect=fixed;fillColor=#d5e8d4;strokeColor=#82b366;" vertex="1" parent="1">
          <mxGeometry x="1140" y="-1830" width="90" height="90" as="geometry" />
        </mxCell>
        <mxCell id="TZ4o8z1Lm96bOT44fwGX-89" value="Database First" style="whiteSpace=wrap;html=1;aspect=fixed;" vertex="1" parent="1">
          <mxGeometry x="1030" y="-1830" width="90" height="90" as="geometry" />
        </mxCell>
      </root>
    </mxGraphModel>
  </diagram>
</mxfile>
